# xmcd CD database file
#
# Track frame offsets:
#	150
#	31620
#	51250
#	72295
#	99030
#	124585
#	142255
#	165635
#	181637
#	206022
#
# Disc length: 2947 seconds
#
# Revision: 1
# Processed by: cddbd v1.5.2PL0 Copyright (c) Steve Scherf et al.
# Submitted via: CDex 1.60beta1-cs1
#
DISCID=800b810a
DTITLE=BIG HORNS BEE - BHB2
DYEAR=1993
DGENRE=Funk
TTITLE0=MOBO
TTITLE1=UHA UHA
TTITLE2=OH-E-OU
TTITLE3=BEAUTIFUL
TTITLE4=OKEE-DOKE
TTITLE5=FUNKY DOG
TTITLE6=SUGOIZO
TTITLE7=BLACK　HOLE
TTITLE8=SHEMA-AJI
TTITLE9=YOU　CAN’T　SIT DOWN （PART２）
EXTD=YEAR: 1993
EXTT0=
EXTT1=
EXTT2=
EXTT3=
EXTT4=
EXTT5=
EXTT6=
EXTT7=
EXTT8=
EXTT9=
PLAYORDER=
